<svg width="12" height="12" viewBox="0 0 12 12" fill="none" xmlns="http://www.w3.org/2000/svg">
<path d="M3.135 11.66L3.27 11.51L3.39 11.435L3.525 11.51C3.72 11.36 3.885 11.195 4.02 11.03C4.155 10.865 4.41 10.43 4.815 9.755L5.745 8.18C6.24 7.34 8.835 3.815 9.42 3.155C10.77 1.61 11.22 1.145 11.4 0.904999C11.565 0.694999 11.67 0.53 11.67 0.41C11.67 0.335 11.625 0.214999 11.55 0.214999C11.475 0.214999 11.355 0.274999 11.205 0.38L11.325 0.11L10.815 0.41L10.845 0.2C10.815 0.289999 10.575 0.53 10.515 0.53C10.47 0.53 10.455 0.484999 10.455 0.41V0.349999L10.035 0.559999C10.005 0.559999 9.975 0.545 9.975 0.499999C9.975 0.455 10.005 0.349999 10.035 0.2C9.825 0.424999 9.525 0.68 9.135 0.95C8.61 1.31 6.57 3.875 5.745 5.21C5.19 6.095 4.965 6.62 4.875 6.62C4.845 6.62 4.83 6.56 4.815 6.44C4.545 7.055 4.305 7.565 4.065 7.94C3.825 8.315 3.6 8.51 3.435 8.51C3.24 8.51 3.075 8.135 2.895 7.37C2.82 7.04 2.655 6.83 2.415 6.71L2.37 6.695C2.325 6.695 2.265 6.725 2.19 6.77C2.115 6.815 2.07 6.86 2.04 6.86H2.025L1.755 6.77L1.515 7.13C1.485 7.175 1.425 7.19 1.38 7.19C1.305 7.19 1.245 7.175 1.215 7.13C1.155 7.34 1.08 7.445 1.02 7.445C0.975 7.445 0.885 7.415 0.765 7.34C0.87 8.135 0.96 8.66 1.05 8.915C1.23 9.41 1.635 10.535 2.025 11.285C2.07 11.375 2.13 11.48 2.175 11.57C2.325 11.48 2.37 11.465 2.475 11.465L2.595 11.48C2.67 11.51 2.715 11.555 2.715 11.63L3.06 11.465C3.12 11.465 3.135 11.525 3.135 11.66Z" fill="black"/>
</svg>
