<svg width="34" height="34" viewBox="0 0 34 34" fill="none" xmlns="http://www.w3.org/2000/svg">
<path d="M17 0C12.4923 0 8.16531 1.79217 4.98047 4.97914C1.79234 8.16737 0.000883123 12.4912 0 17C0 21.5069 1.79297 25.8339 4.98047 29.0209C8.16531 32.2078 12.4923 34 17 34C21.5077 34 25.8347 32.2078 29.0195 29.0209C32.207 25.8339 34 21.5069 34 17C34 12.4931 32.207 8.16611 29.0195 4.97914C25.8347 1.79217 21.5077 0 17 0Z" fill="#1952DD"/>
<path d="M7.3747 16.888C12.7444 14.6302 16.3242 13.1416 18.1141 12.4224C23.2306 10.3689 24.2925 10.0122 24.986 10.0001C25.1385 9.99774 25.4781 10.0341 25.6997 10.207C25.8838 10.3529 25.9356 10.5501 25.9615 10.6886C25.9845 10.8269 26.0162 11.1422 25.9903 11.3883C25.714 14.1994 24.5141 21.021 23.904 24.1696C23.6479 25.5018 23.1385 25.9485 22.6465 25.9921C21.576 26.0871 20.7645 25.3099 19.7285 24.6546C18.1084 23.6288 17.1933 22.9904 15.6192 21.9896C13.8005 20.8329 14.9804 20.1971 16.0163 19.1582C16.2868 18.8863 21.0004 14.7488 21.0896 14.3735C21.1012 14.3266 21.1127 14.1516 21.0033 14.0594C20.8968 13.9669 20.7386 13.9985 20.6235 14.0235C20.4594 14.0591 17.8724 15.7113 12.8538 18.9799C12.12 19.4671 11.4552 19.7046 10.8567 19.6921C10.2006 19.6785 8.93439 19.3332 7.99339 19.0382C6.84233 18.6763 5.92435 18.4849 6.00493 17.8702C6.04522 17.5502 6.50276 17.2227 7.3747 16.888Z" fill="white"/>
</svg>
