<svg width="34" height="34" viewBox="0 0 34 34" fill="none" xmlns="http://www.w3.org/2000/svg">
<path d="M17 0C12.4923 0 8.16531 1.79217 4.98047 4.97914C1.79234 8.16737 0.000883123 12.4912 0 17C0 21.5069 1.79297 25.8339 4.98047 29.0209C8.16531 32.2078 12.4923 34 17 34C21.5077 34 25.8347 32.2078 29.0195 29.0209C32.207 25.8339 34 21.5069 34 17C34 12.4931 32.207 8.16611 29.0195 4.97914C25.8347 1.79217 21.5077 0 17 0Z" fill="#02942B"/>
<path fill-rule="evenodd" clip-rule="evenodd" d="M10.2009 21.1349C9.46006 19.8573 9.07044 18.4079 9.07085 16.9234C9.07278 12.2788 12.8699 8.5 17.5354 8.5C19.7998 8.50103 21.925 9.37833 23.523 10.9705C25.1212 12.5628 26.0009 14.6793 26 16.93C25.998 21.5749 22.2007 25.3539 17.5357 25.3539H17.532C16.1189 25.3538 14.7283 25.0013 13.4872 24.3287L9 25.5L10.2009 21.1349ZM14.1877 12.0062C14.3805 12.0139 14.5938 12.0228 14.7966 12.4646C14.9349 12.7659 15.1673 13.3271 15.3529 13.7754C15.4903 14.1073 15.6021 14.3773 15.631 14.4338C15.6985 14.5664 15.7438 14.7214 15.6534 14.8985C15.6398 14.9251 15.6272 14.9503 15.6152 14.9744C15.5475 15.1097 15.4978 15.2093 15.3832 15.3409C15.3378 15.3927 15.2909 15.4486 15.244 15.5045C15.1509 15.6155 15.0579 15.7264 14.977 15.8055C14.8413 15.9377 14.7003 16.0814 14.8582 16.3467C15.0161 16.6123 15.5593 17.4806 16.3638 18.1838C17.2282 18.9392 17.979 19.2586 18.3604 19.4209C18.4353 19.4528 18.4959 19.4786 18.5403 19.5004C18.8109 19.6331 18.9689 19.611 19.1267 19.4337C19.2847 19.2568 19.8029 18.6594 19.9834 18.3942C20.1639 18.1285 20.3443 18.1727 20.5925 18.2611C20.8405 18.3497 22.1711 18.9915 22.4418 19.1242C22.4945 19.15 22.5438 19.1733 22.5895 19.1949C22.7785 19.2843 22.9061 19.3447 22.9606 19.4337C23.0282 19.5446 23.0282 20.0756 22.8026 20.695C22.5772 21.3144 21.4721 21.9118 20.9759 21.956C20.9282 21.9602 20.8808 21.9657 20.832 21.9713C20.3734 22.0243 19.7947 22.0911 17.7282 21.2924C15.1862 20.3097 13.51 17.8749 13.1633 17.3712C13.1348 17.3298 13.1153 17.3015 13.105 17.2881L13.1021 17.2842C12.9564 17.0934 12 15.8405 12 14.5443C12 13.3227 12.6125 12.6823 12.8944 12.3876C12.9137 12.3674 12.9314 12.3489 12.9473 12.3319C13.1952 12.0666 13.4885 12 13.669 12C13.6807 12 13.6925 12 13.7043 12C13.8727 12 14.0401 11.9999 14.1877 12.0062Z" fill="white"/>
</svg>
